<?xml version="1.0" encoding="UTF-8"?>
<svg id="Layer_1" xmlns="http://www.w3.org/2000/svg" viewBox="0 0 991 652">
  <g>
    <path d="M297.52,333.66c-.64-6.57-1.29-13.77-1.94-21.6-.66-7.83-1.03-12.94-1.1-15.33-.04-1.55.58-2.88,1.85-3.97,1.27-1.09,2.75-1.64,4.42-1.64,1.79,0,3.45.24,4.96.72,1.51.48,2.25,1.04,2.21,1.67l-4.42,40.09h8.42v13.44h-2.33c-2.43,0-4.43-.26-6-.78-1.57-.52-2.85-1.49-3.82-2.93-.98-1.43-1.6-3.49-1.88-6.15l-.36-3.52Z"/>
    <path d="M311.8,333.6h14.94v13.44h-14.94v-13.44Z"/>
    <path d="M326.61,333.6h14.94v13.44h-14.94v-13.44Z"/>
    <path d="M377.58,332.88c1.2.48,2.41.72,3.65.72v13.44c-1.91,0-3.62-.22-5.11-.66s-2.76-1.26-3.79-2.45c-1.12,1-2.61,1.71-4.48,2.15-1.87.44-4.06.71-6.57.81-2.51.1-6.23.15-11.17.15h-8.66v-13.44h27.9c0-.8-.93-1.63-2.78-2.51-1.85-.88-4.77-2.01-8.75-3.41-.44-.16-.92-.34-1.43-.54-.52-.2-1.08-.4-1.67-.6-2.99-1.08-5.1-1.99-6.33-2.75-1.24-.76-2.15-1.92-2.75-3.49-.6-1.57-.9-3.97-.9-7.2,0-1.55.2-2.88.6-3.97.4-1.1,1.02-2.14,1.85-3.14s2.09-2.31,3.76-3.94l10.58-10.28c.88-.88,1.93-1.31,3.17-1.31,1.11.04,2.23.45,3.35,1.22s2.05,1.72,2.81,2.84c.96,1.67,1.43,3.45,1.43,5.32,0,1.23-.24,2.34-.72,3.32-.48.98-1.16,1.66-2.03,2.06l-7.71,3.47c-3.51,1.51-5.84,2.58-6.99,3.2-1.16.62-1.53,1.03-1.14,1.22l1.79.9c3.15,1.51,5.87,2.95,8.19,4.3,2.31,1.36,4.48,2.98,6.51,4.87,2.03,1.89,3.49,3.97,4.36,6.24.84,1.83,1.85,2.99,3.05,3.47Z"/>
    <path d="M404.22,312.89c1.79,1.73,3.14,3.92,4.03,6.57.9,2.65,1.34,5.33,1.34,8.04,0,5.54-.68,9.64-2.03,12.31-1.35,2.67-4.01,4.54-7.98,5.62-3.96,1.08-10.13,1.61-18.49,1.61l.06-13.44h5.62c-.88-2.27-1.31-4.32-1.31-6.15,0-2.83.47-5.57,1.4-8.22.94-2.65,2.34-4.8,4.21-6.45,1.87-1.65,4.1-2.48,6.69-2.48s4.66.87,6.45,2.6ZM392.33,301.09c-.68-.68-1.02-1.43-1.02-2.27s.34-1.53,1.02-2.21l3.17-3.17c.64-.64,1.37-.96,2.21-.96s1.61.32,2.21.96l3.17,3.17c.68.64,1.02,1.37,1.02,2.21s-.34,1.59-1.02,2.27l-3.17,3.17c-.64.64-1.37.96-2.21.96s-1.57-.32-2.21-.96l-3.17-3.17ZM401.86,331.09c1.17-1.15,1.76-2.31,1.76-3.47,0-1.43-.66-2.44-1.97-3.02-1.31-.58-2.71-.87-4.18-.87s-2.9.28-4.15.84c-1.25.56-1.88,1.53-1.88,2.93,0,1.27.51,2.47,1.52,3.58,1.02,1.12,2.5,1.93,4.45,2.45,1.79-.48,3.28-1.29,4.45-2.45Z"/>
    <path d="M418.62,333.66c-.64-6.57-1.29-13.77-1.94-21.6-.66-7.83-1.03-12.94-1.1-15.33-.04-1.55.58-2.88,1.85-3.97,1.27-1.09,2.75-1.64,4.42-1.64,1.79,0,3.45.24,4.96.72,1.51.48,2.25,1.04,2.21,1.67l-4.42,40.09h8.42v13.44h-2.33c-2.43,0-4.43-.26-6-.78-1.57-.52-2.85-1.49-3.82-2.93-.98-1.43-1.6-3.49-1.88-6.15l-.36-3.52Z"/>
    <path d="M432.9,333.6h14.94v13.44h-14.94v-13.44Z"/>
    <path d="M447.72,333.6h14.94v13.44h-14.94v-13.44Z"/>
    <path d="M462.54,333.6h14.94v13.44h-14.94v-13.44Z"/>
    <path d="M497.79,333.6h7.11c0-.84-.95-1.7-2.84-2.6-1.89-.9-4.93-2.08-9.11-3.55-1.19-.4-2.09-.72-2.69-.96-2.99-1.11-5.1-2.04-6.33-2.78-1.23-.74-2.15-1.88-2.75-3.44s-.9-3.94-.9-7.17c0-1.55.2-2.88.6-3.97.4-1.1,1.02-2.14,1.85-3.14s2.09-2.31,3.76-3.94l10.57-10.28c.92-.88,1.97-1.31,3.17-1.31,1.12.04,2.23.45,3.35,1.22,1.11.78,2.05,1.72,2.81,2.84.96,1.67,1.43,3.45,1.43,5.32,0,1.23-.24,2.34-.72,3.32s-1.16,1.66-2.03,2.06l-7.71,3.47c-3.51,1.51-5.84,2.58-6.99,3.2-1.16.62-1.53,1.03-1.13,1.22l2.03,1.02c3.78,1.87,7,3.63,9.65,5.29,2.65,1.65,4.97,3.68,6.96,6.09,1.99,2.41,2.99,5.13,2.99,8.16,0,4.42-.73,7.55-2.18,9.38-1.45,1.83-3.75,2.96-6.9,3.38-3.15.42-8.52.63-16.13.63h-8.3v-13.44h20.43Z"/>
  </g>
  <g>
    <path d="M555.76,331.94c.86.71,1.72,1.12,2.58,1.23.86.11,1.85.16,2.97.16v14.53c-1.89-.04-3.34-.19-4.33-.45-.99-.26-2.01-.98-3.07-2.16-1.06-1.18-2.19-3.11-3.39-5.78-2.28,2.97-4.5,5.11-6.65,6.43-2.15,1.31-4.39,1.97-6.72,1.97-2.58,0-4.78-.69-6.59-2.07-1.81-1.38-3.15-3.17-4.04-5.39-.88-2.22-1.32-4.57-1.32-7.07,0-3.27.6-6.39,1.81-9.36,1.2-2.97,2.97-5.47,5.29-7.49,2.32-2.02,5.14-3.31,8.46-3.87l-.77-1.81c-.13-.34-.19-.67-.19-.97,0-.82.36-1.67,1.1-2.55.73-.88,1.7-1.61,2.9-2.2,1.21-.58,2.43-.87,3.68-.87,1.68,0,3.27.27,4.78.81,1.51.54,2.26,1.11,2.26,1.71l-.06,21.83c0,1.55.43,2.68,1.29,3.39ZM542.49,332.33c1.36-.67,2.7-1.82,4.04-3.45l-.97-2.91c-.99-3.01-1.79-5.4-2.39-7.17-2.24.13-4.17.7-5.78,1.71-1.61,1.01-2.83,2.25-3.65,3.71-.82,1.46-1.23,2.91-1.23,4.33s.44,2.57,1.32,3.45c.88.88,2.23,1.32,4.04,1.32s3.26-.33,4.62-1ZM558.28,291.74c0,.9-.37,1.72-1.1,2.45l-3.42,3.42c-.73.73-1.53,1.1-2.39,1.1-.77,0-1.57-.36-2.39-1.1l-3.42-3.42-3.42,3.42c-.69.69-1.49,1.03-2.39,1.03s-1.7-.34-2.39-1.03l-3.42-3.42c-.69-.69-1.03-1.49-1.03-2.39s.34-1.72,1.03-2.45l3.42-3.42c.69-.69,1.49-1.03,2.39-1.03s1.74.34,2.39,1.03l3.42,3.42,3.42-3.42c.69-.69,1.49-1.03,2.39-1.03s1.74.34,2.39,1.03l3.42,3.42c.73.69,1.1,1.49,1.1,2.39Z"/>
    <path d="M590.37,333.33v14.53c-2.63,0-4.86-.31-6.72-.94-1.85-.62-3.36-1.82-4.52-3.58-1.81,1.68-4.18,2.85-7.1,3.52-2.93.67-6.54,1-10.85,1v-14.53l8.2.06c2.07,0,3.63-.11,4.68-.32,1.05-.21,1.82-.63,2.29-1.26.47-.62.71-1.58.71-2.87,0-.73-.09-1.68-.26-2.84-.17-1.16-.39-2.43-.64-3.81l-.32-1.61c-.3-1.2-.45-2.15-.45-2.84,0-.73.24-1.29.71-1.68s1.31-.58,2.52-.58c.9,0,1.6.23,2.1.68.49.45.85,1.03,1.07,1.74.21.71.43,1.71.65,3l.19,1.29c.39,2.28.65,4.35.77,6.2v.58c.3,2.84,2.63,4.26,6.97,4.26ZM576.49,353.35c.9,0,1.7.34,2.39,1.03l3.42,3.42c.73.73,1.1,1.55,1.1,2.45s-.37,1.7-1.1,2.39l-3.42,3.42c-.69.69-1.49,1.03-2.39,1.03s-1.7-.34-2.39-1.03l-3.42-3.42c-.73-.73-1.1-1.53-1.1-2.39s.37-1.64,1.1-2.45l3.42-3.42c.77-.69,1.57-1.03,2.39-1.03Z"/>
    <path d="M619.43,333.33v14.53c-2.63,0-4.86-.31-6.72-.94-1.85-.62-3.36-1.82-4.52-3.58-1.81,1.68-4.18,2.85-7.1,3.52-2.93.67-6.54,1-10.85,1v-14.53l8.2.06c2.07,0,3.63-.11,4.68-.32,1.05-.21,1.82-.63,2.29-1.26.47-.62.71-1.58.71-2.87,0-.73-.09-1.68-.26-2.84-.17-1.16-.39-2.43-.64-3.81l-.32-1.61c-.3-1.2-.45-2.15-.45-2.84,0-.73.24-1.29.71-1.68s1.31-.58,2.52-.58c.9,0,1.6.23,2.1.68.49.45.85,1.03,1.07,1.74.21.71.43,1.71.65,3l.19,1.29c.39,2.28.65,4.35.77,6.2v.58c.3,2.84,2.63,4.26,6.97,4.26ZM617.62,304.21c0,.9-.37,1.72-1.1,2.45l-3.42,3.42c-.73.73-1.53,1.1-2.39,1.1-.77,0-1.57-.37-2.39-1.1l-3.42-3.42-3.42,3.42c-.69.69-1.49,1.03-2.39,1.03s-1.7-.34-2.39-1.03l-3.42-3.42c-.69-.69-1.03-1.49-1.03-2.39s.34-1.72,1.03-2.45l3.42-3.42c.69-.69,1.49-1.03,2.39-1.03s1.74.34,2.39,1.03l3.42,3.42,3.42-3.42c.69-.69,1.49-1.03,2.39-1.03s1.74.34,2.39,1.03l3.42,3.42c.73.69,1.1,1.49,1.1,2.39Z"/>
    <path d="M658.37,332.55c1.29.52,2.6.77,3.94.77v14.53c-2.07,0-3.91-.24-5.52-.71-1.61-.47-2.98-1.36-4.1-2.65-1.21,1.08-2.82,1.85-4.84,2.32-2.02.47-4.39.77-7.1.87-2.71.11-6.74.16-12.08.16h-9.36v-14.53h30.16c0-.86-1-1.77-3-2.71-2-.95-5.16-2.17-9.46-3.68-.47-.17-.99-.37-1.55-.58-.56-.21-1.16-.43-1.81-.65-3.23-1.16-5.51-2.15-6.85-2.97-1.33-.82-2.32-2.08-2.97-3.78-.65-1.7-.97-4.29-.97-7.78,0-1.68.21-3.11.64-4.29.43-1.18,1.1-2.31,2-3.39.9-1.08,2.26-2.5,4.07-4.26l11.43-11.11c.95-.95,2.09-1.42,3.42-1.42,1.2.04,2.41.48,3.62,1.32,1.2.84,2.22,1.86,3.03,3.07,1.03,1.81,1.55,3.72,1.55,5.75,0,1.33-.26,2.53-.77,3.58-.52,1.06-1.25,1.8-2.2,2.23l-8.33,3.75c-3.79,1.64-6.31,2.79-7.56,3.45-1.25.67-1.66,1.11-1.23,1.32l1.94.97c3.4,1.64,6.35,3.19,8.85,4.65,2.5,1.46,4.84,3.22,7.04,5.26,2.2,2.05,3.77,4.29,4.71,6.75.9,1.98,2,3.23,3.29,3.75Z"/>
    <path d="M692.88,313.08c2.43,3.29,3.65,8.21,3.65,14.76s-1.2,11.46-3.62,14.88c-2.41,3.42-5.68,5.13-9.82,5.13s-7.19-1.51-9.69-4.52c-1.12,1.77-2.62,2.96-4.49,3.58-1.87.62-4.12.94-6.75.94v-14.53c.08,0,.75.01,2,.03,1.25.02,2.39-.39,3.42-1.23,1.03-.84,1.55-2.06,1.55-3.65v-.65c0-6.54,1.22-11.46,3.65-14.76,2.43-3.29,5.78-4.94,10.04-4.94s7.61,1.65,10.04,4.94ZM688.43,331.65c1.1-1.12,1.65-2.39,1.65-3.81s-.57-2.58-1.71-3.62c-1.14-1.03-2.98-1.55-5.52-1.55-2.71,0-4.6.51-5.65,1.52-1.06,1.01-1.58,2.23-1.58,3.65s.55,2.69,1.65,3.81c1.1,1.12,2.96,1.68,5.59,1.68s4.49-.56,5.59-1.68Z"/>
  </g>
</svg>